<svg width="923" height="290" viewBox="0 0 923 290" fill="none" xmlns="http://www.w3.org/2000/svg">
<path fill-rule="evenodd" clip-rule="evenodd" d="M305.383 136.292V178.837H281.738V145.731C281.738 132.968 277.354 128.58 270.845 128.58C261.148 128.58 256.233 135.228 256.233 149.853V178.704H232.721V81.1159C232.721 81.1159 250.122 81.1159 251.318 81.1159C254.108 81.1159 256.233 82.4454 256.233 86.301C256.233 87.6306 256.233 120.736 256.233 120.736H256.499C261.546 113.689 268.985 109.169 279.214 109.169C297.944 109.169 305.383 122.198 305.383 136.292ZM180.515 145.465C180.515 133.632 188.486 126.719 198.714 126.719C202.699 126.719 206.02 127.251 209.076 128.447C209.74 128.713 210.271 128.979 210.802 129.112C210.935 129.112 210.935 129.112 211.068 129.112C212.397 129.112 213.459 128.048 213.459 126.852V112.626C208.411 110.366 202.434 109.302 195.925 109.302C173.342 109.302 155.941 122.198 155.941 144.934C155.941 167.536 173.209 180.565 195.792 180.565C201.902 180.565 208.81 179.501 214.655 177.773V159.957C210.67 162.085 205.356 163.281 199.91 163.281C189.814 163.281 180.515 156.368 180.515 145.465ZM417.498 109.169C407.801 109.169 398.768 113.158 393.321 122.198C389.602 113.291 381.765 109.169 371.935 109.169C361.972 109.169 354.4 112.759 346.43 120.603C346.43 120.603 344.969 122.331 343.507 122.331C342.577 122.331 341.78 121.933 341.116 121.401L331.685 111.961C331.021 111.296 330.091 110.897 329.028 110.897C326.903 110.897 325.309 112.626 325.309 114.62V179.103H348.821V150.252C348.821 135.627 353.869 128.979 362.237 128.979C368.879 128.979 371.536 134.696 371.536 142.407V179.103H395.048V150.252C395.048 135.627 399.963 128.979 408.465 128.979C415.107 128.979 417.896 134.696 417.896 142.407V179.103H441.409V138.951C441.542 120.204 437.158 109.169 417.498 109.169ZM140.266 116.481V173.651C140.266 175.646 138.672 177.374 136.546 177.374C135.483 177.374 134.554 176.842 133.889 176.311L130.303 172.721C129.639 172.056 128.709 171.657 127.779 171.657C126.849 171.657 126.052 172.056 125.388 172.588C119.543 178.039 113.167 180.698 104.532 180.698C84.8723 180.698 68.9318 164.744 68.9318 145.066C68.9318 125.389 85.0052 109.435 104.665 109.435C113.3 109.435 119.543 112.094 125.521 117.545C126.185 118.077 126.982 118.476 127.912 118.476C128.842 118.476 129.771 118.077 130.436 117.412L134.022 113.822C134.686 113.158 135.483 112.759 136.679 112.759C138.672 112.759 140.266 114.487 140.266 116.481ZM120.871 144.934C120.871 136.026 114.097 128.846 105.728 128.846C97.3591 128.846 90.5844 136.026 90.5844 144.934C90.5844 153.841 97.3591 161.021 105.728 161.021C114.097 161.021 120.871 153.841 120.871 144.934ZM614.629 116.481V173.651C614.629 175.646 613.035 177.374 610.91 177.374C609.847 177.374 608.917 176.842 608.253 176.311L604.799 172.721C604.135 172.056 603.205 171.657 602.275 171.657C601.345 171.657 600.415 172.056 599.884 172.588C594.039 178.039 587.663 180.698 579.161 180.698C559.368 180.698 543.561 164.744 543.561 145.066C543.561 125.389 559.634 109.435 579.294 109.435C587.796 109.435 594.172 112.094 600.017 117.545C600.681 118.077 601.478 118.476 602.408 118.476C603.338 118.476 604.268 118.077 604.932 117.412L608.386 113.822C609.05 113.158 609.98 112.759 611.042 112.759C613.035 112.759 614.629 114.487 614.629 116.481ZM595.102 144.934C595.102 136.026 588.327 128.846 580.091 128.846C571.722 128.846 564.948 136.026 564.948 144.934C564.948 153.841 571.722 161.021 580.091 161.021C588.327 161.021 595.102 153.841 595.102 144.934ZM529.082 147.593V151.98H482.323C483.651 161.42 490.824 165.01 502.248 165.01C508.625 165.01 515.798 163.547 522.971 159.824V176.443C515.266 179.501 506.765 180.698 498.13 180.698C475.814 180.698 458.81 167.669 458.81 145.066C458.81 122.597 473.954 109.435 495.075 109.435C519.916 109.435 529.082 127.384 529.082 147.593ZM507.296 135.76C506.499 129.245 502.647 124.326 494.411 124.326C486.972 124.326 482.987 129.378 481.791 135.893C481.526 137.488 482.455 138.685 484.182 138.685H504.905C506.499 138.685 507.562 137.754 507.296 135.76ZM752.116 75C735.246 75 719.172 80.4511 707.615 90.9544C706.287 92.151 704.693 92.8158 702.833 92.8158C700.841 92.8158 699.114 92.018 697.918 90.8215L690.081 82.9772C689.284 82.1795 688.088 81.6477 686.76 81.6477C684.236 81.6477 682.111 83.7749 682.111 86.301V203.699C682.111 206.358 684.236 208.352 686.76 208.352C688.088 208.352 689.151 207.821 690.081 207.023L697.918 199.179C699.247 197.982 700.974 197.184 702.833 197.184C704.693 197.184 706.287 197.849 707.615 199.046C719.172 209.682 735.113 215 752.116 215C790.772 215 822.121 183.623 822.121 144.934C821.989 106.377 790.639 75 752.116 75ZM749.858 101.724C760.352 101.724 770.315 105.047 777.355 111.562C778.152 112.227 779.082 112.759 780.278 112.759C781.473 112.759 782.536 112.227 783.333 111.562L788.248 106.776C788.779 106.244 789.443 105.978 790.24 105.978C791.834 105.978 793.163 107.308 793.163 108.903V181.496C793.163 183.091 791.834 184.421 790.24 184.421C789.443 184.421 788.779 184.155 788.248 183.623L783.333 178.837C782.536 178.039 781.473 177.64 780.278 177.64C779.215 177.64 778.152 178.039 777.355 178.837C770.182 185.351 760.219 188.675 749.858 188.675C725.947 188.675 706.553 169.264 706.553 145.332C706.686 121.002 725.947 101.724 749.858 101.724ZM750.92 163.68C760.618 163.68 768.455 155.304 768.455 144.934C768.455 134.696 760.618 126.187 750.92 126.187C741.223 126.187 733.386 134.563 733.386 144.934C733.386 155.304 741.223 163.68 750.92 163.68Z" fill="#CC0000"/>
</svg>
